<?xml version="1.0" encoding="UTF-8" standalone="no"?>
<svg xmlns="http://www.w3.org/2000/svg" version="1.1" width="1000" height="850">
    <path d="m 795.71875,16.875 -7.15625,3.1875 -11.125,2.71875 -11.4375,6.375 -5.78125,1.75 -5.3125,9.625 -2.65625,2.125 -0.375,5.03125 2.9375,-0.40625 5.8125,0.5 0.875,3.78125 1.84375,2.96875 -0.375,7.75 -5.625,6.71875 -4.09375,14.8125 -1.8125,7.8125 -2.78125,8.28125 3.125,4.90625 -2.65625,5.4375 -5.90625,1.40625 -6.4375,7.5625 -5.03125,3.65625 -8.375,-0.4375 -8.71875,-3.4375 -6.875,21.75 0.96875,3.4375 -2.0625,2.875 -0.90625,9.125 -3.8125,3.34375 3,6.375 4.46875,3.25 3.28125,-3.65625 12.15625,-2.53125 6.53125,3.03125 4.0625,-7.53125 10.3125,-1.875 6.09375,3.71875 4.40625,0.5625 2.8125,4.21875 9.125,5.4375 4.96875,9.625 -3.25,3.8125 -5.6875,1.34375 -7.3125,-1.8125 -2.96875,1.5625 -4.5625,-0.8125 -8.78125,6.96875 -4.1875,-0.84375 -1.5,4.34375 -7.15625,0.9375 -5.25,5.28125 -2.75,6.625 0.0312,4.28125 -8.09375,8.53125 L 696.5,222.5 693.65625,227.875 682.3125,238.9375 666.625,238.25 663.03125,235.28125 653.8125,235 l -6,16.375 10.5,12.625 -3.46875,2.78125 -2.96875,3.28125 -7.5,4.15625 -10.84375,14.5625 -14.5625,7.65625 -19.625,1.6875 -6.3125,1.625 -8.03125,-1.09375 -3.09375,2.65625 -8.84375,2.34375 -13.8125,7.125 -14.21875,9.0625 -4.59375,-1.4375 L 537.25,314 530.8125,315.71875 513.125,311 499.6875,307.65625 494.09375,300.9375 466.125,296.40625 450.96875,299 434.375,296 420.21875,294.84375 406.1875,291.375 398.40625,281 l -5.375,-18 -3.21875,-2.09375 0.0625,-4.25 -7.46875,-1.9375 -13.1875,-9.40625 -7.84375,-7.40625 -27.40625,-3.96875 -7.21875,-3.875 -5.46875,-1.09375 -2.625,-2.96875 0.71875,-7.125 6.15625,-8.46875 -1.34375,-6.5625 2.625,-3.28125 0.46875,-5.25 -5.6875,-10.875 -1.53125,-9.0625 -5.125,-7.59375 -2.8125,0.625 -5.375,-5.65625 -2.875,0.90625 -4.15625,-0.0312 -2.0625,-2.8125 -3.3125,-7.28125 -7.09375,-4.78125 0.0937,-2.75 -3.28125,-5.625 1.65625,-2.53125 -0.25,-4.125 -4.625,1.125 -4.78125,-2.0625 -5.71875,0.96875 -0.71875,4.59375 -2.28125,5.375 -7.4375,3.25 -7.09375,-1.1875 -5.6875,13.09375 0.78125,10.3125 -1.53125,5.375 -6.5,1.21875 -6.15625,3 -2.4375,-2.84375 -4.34375,-2.3125 -5.8125,-0.34375 -13.375,-7.5625 -2,5 L 195,189.0625 189.71875,200.03125 194,204.25 l -2.90625,5.78125 -3.5625,-2.4375 -5.75,0.0937 -4,-5.125 -10.90625,1.9375 -14.59375,0 -3.59375,3 8,4.78125 -2.03125,3.25 -2.5625,10.15625 2.71875,13.28125 -1.125,4.09375 0.59375,4.5 -5.65625,1.59375 -0.28125,4.0625 -5.71875,2.25 -0.375,4.875 -2.1875,10.03125 -4.34375,-1.40625 L 132,271.25 l -8.90625,1.5 -14.15625,4.15625 -7.875,6.8125 -10.59375,-1.125 -9.28125,-3.53125 -7.4375,8.21875 -5.3125,4.03125 -4.40625,-1.625 -5.21875,0.46875 -2.21875,-7.5625 -5.65625,2.125 -6.71875,-2.46875 -0.34375,2.4375 -9,2.9375 -5.59375,-0.9375 -3.96875,3.4375 -1.15625,7.8125 -4.84375,0.90625 -1.875,4.1875 1.875,6.25 -2.9375,1.5 1.34375,9.125 5.125,-2.59375 10.15625,6.5 -2.46875,6.375 0.78125,4.53125 L 30.5,345.25 l 0.09375,5.15625 -11.375,0.125 -0.1875,3.25 5.9375,3.9375 7.0625,1.71875 1.75,5.40625 5.125,2.0625 1.40625,8.6875 -1.875,5.5625 2.9375,6.5625 4.53125,0.90625 6.34375,7.21875 14.25,6.6875 0.90625,-0.0312 0.03125,0.0625 0.78125,-0.0937 1.65625,-0.0312 0.71875,1.375 -1.1875,2.03125 -0.5625,1.78125 1.125,4.21875 0.125,1.59375 -0.1875,2.1875 0.6875,1.59375 0.25,2.59375 -0.25,1.4375 1.03125,2.28125 2,0.875 3.34375,1.46875 1.46875,1.8125 0.6875,1.40625 1.90625,1.125 0.75,1.34375 -0.4375,2.375 -1.21875,1.09375 -3.96875,0.625 -0.4375,2.09375 0.125,2.0625 0.25,2.21875 -0.3125,1.6875 -1,3.6875 0.6875,2.78125 -0.0625,0.375 0.25,0.28125 0.0625,0.28125 0.5,0.5 0,-0.0625 4.90625,5.875 -0.03125,0.25 -1.6875,-0.75 -0.53125,1.46875 -0.78125,0.96875 -0.28125,0.90625 0.5,0.84375 0.8125,0.34375 0.5625,1.9375 -0.53125,1.28125 -0.65625,0.40625 0.46875,0.96875 0.03125,0.90625 -0.65625,1.5 0.25,0.875 -0.875,1.09375 -0.21875,1.40625 1.1875,-0.1875 1.03125,-0.53125 -0.0625,0.53125 -9.1875,1.8125 -1.625,-5.21875 -5.125,-0.96875 -0.9375,6.09375 2.96875,7.8125 -0.25,0.75 -0.375,-0.9375 -2.03125,-2.53125 -1,-2.65625 -1.28125,0.375 0.09375,1.71875 0.8125,-0.21875 1.21875,2.0625 1.375,2.28125 0.375,1.9375 0.15625,-0.1875 -0.40625,1.125 0.28125,4 -1.1875,3.84375 -0.0625,2.53125 1.875,1.84375 -0.40625,0.125 0.90625,1.875 0.0625,1.78125 0.53125,1.125 2.96875,1.21875 1.3125,0 0.84375,0.0625 3.78125,3.71875 6.4375,1.6875 3.25,5.03125 -0.84375,-0.96875 -0.1875,1.4375 -0.09375,0.96875 1.03125,0.40625 0.90625,1.15625 0.8125,-0.53125 0.4375,0.6875 7.03125,6.59375 5.09375,5.65625 2.15625,4.4375 10.40625,-7 1.1875,3.6875 4.59375,3.25 9.25,6.46875 4.09375,5.84375 7.5,5.9375 1.84375,8.09375 4.84375,4.5625 4.125,-5.34375 3.65625,2.09375 -1.09375,9.125 12.46875,8 5.46875,-0.53125 -0.53125,3.25 1.03125,4.65625 5.625,1.21875 6.5625,4.34375 1.71875,5.09375 2.90625,-3 3.125,3.46875 2.6875,1.21875 4.71875,-2.90625 10.15625,8.40625 5.71875,-0.90625 3.09375,2.21875 18.75,-4.21875 4.4375,2.46875 0.125,3.59375 -2.84375,6.25 1.09375,3.59375 1.78125,-0.21875 5.9375,-6.3125 7.125,-5.96875 10.09375,-4.625 5.8125,1.96875 6.15625,6.15625 11.53125,1.5 7.375,5.1875 -1.75,3.78125 0.96875,2.8125 1.9375,2 4.53125,0.21875 1.53125,1.625 -0.21875,1.9375 -1.84375,2.34375 0.0625,2.125 1.15625,0.90625 0.625,2.28125 -0.1875,0.84375 3.84375,0.125 3.875,-0.71875 3,-0.96875 2.71875,2.0625 3.40625,0.125 3.46875,0.75 3.40625,-0.4375 1.6875,0.3125 0.96875,-0.28125 4.21875,-0.78125 2.34375,-0.59375 0.78125,-3.34375 3.0625,-2.875 2.71875,-1.625 2.875,-3.09375 4,-0.75 6.84375,-1.40625 3,-1.875 2.5,-0.625 2.09375,-1.25 2.09375,-0.78125 1.25,-3.5 11.4375,-3.53125 0.625,1.40625 1.625,1.0625 2.78125,-0.0312 1.75,-0.71875 1.28125,2.125 1.4375,0.21875 0.4375,-0.46875 3.53125,2.84375 3.9375,3.25 2.8125,1.09375 1.375,1.5625 0.125,1.34375 6.84375,-4.4375 0.5625,-1.875 -0.625,-2.5 0.625,-1.96875 -0.625,-0.0312 3.46875,-3.96875 3.65625,-1.28125 2.65625,3.21875 3.9375,1.71875 2.09375,7.21875 4.28125,9.4375 2,-2.5 4.53125,2.84375 -0.8125,7.71875 0.84375,3.375 -0.46875,15.34375 -3,6.28125 1.03125,4.90625 -3.21875,1.40625 -3.375,4.6875 -3.09375,0.125 -1.625,4.59375 L 411.5,680.5 l -1.71875,5.78125 0.625,2.40625 -3.28125,1.09375 -1.53125,2.53125 0.65625,5 1.65625,1.84375 0.78125,4.28125 -2.6875,4.40625 0.59375,2.5 5.28125,-1.8125 2.9375,-3 9.25,-0.625 2.40625,1.5 5.125,-0.53125 -3.59375,5.0625 2.65625,3.96875 1.6875,10.90625 3.5625,3.125 7.9375,0.0937 0.84375,2.84375 -3.71875,5.5625 0.78125,4.3125 -3.125,4.125 -1,4.15625 3.59375,1.5625 2,-0.40625 10.40625,2.46875 -0.625,5.09375 2.9375,3.09375 2.90625,5.875 2.5625,-2.59375 4.6875,1.96875 4.96875,-4.09375 5.34375,-1.875 4.65625,11.96875 4.78125,-0.875 4.53125,1.09375 0.9375,-10.34375 -4.6875,-12.65625 3.0625,-5.8125 2.625,1.1875 7,-0.34375 3.84375,-2.90625 2.96875,-4.375 6.5625,3.25 2.34375,2.96875 2.03125,0.15625 6.90625,-7.375 3.3125,4.6875 2.59375,-4.5625 6.34375,6.28125 1.75,-4.1875 3.1875,-3.15625 2.6875,2.5 3.34375,-1.625 7.0625,-2.71875 0.21875,-4.21875 9.59375,-6.46875 5.15625,4.96875 7.5,4.03125 4.78125,-1.5625 3.21875,3.09375 3.96875,-1.65625 5.75,2.125 0.125,3.09375 -3.65625,2.90625 -0.34375,3.375 1.625,1.59375 1.8125,7.03125 6.03125,1.53125 3.21875,3.75 7.4375,3.03125 6.75,-1.875 3.625,2.375 3.34375,-1.3125 0.53125,0.46875 2.03125,0 1,-2.25 2.78125,-0.78125 0,-4.78125 2.78125,-0.75 0.75,3.03125 2.53125,3.28125 1.5,-1.53125 2.78125,1.53125 2.78125,0.75 1.03125,4.03125 1.75,-1.25 6.0625,-1.28125 -1,-4.28125 1.25,-0.25 3.03125,3.78125 5.8125,0.5 -1.25,2.28125 -2.78125,4.28125 -1.03125,8.09375 2.78125,0.75 0.5,5.8125 4.3125,2.28125 -1.28125,1 0.78125,2.53125 7.5625,-0.25 3.53125,-3.53125 0.25,-1.53125 -3.53125,-3.53125 -0.75,-3.53125 -2.78125,-1 -1,-3.28125 2.25,-2.28125 3.5625,-2.53125 2.5,-0.25 3.5625,-4.8125 4.03125,-0.25 1.75,-2.25 5.5625,-0.28125 1.78125,-1.5 3.28125,0 3.28125,-2.28125 0,-2.25 3.03125,-1.03125 2.28125,-1.25 3.28125,0 4.03125,0 0.75,-2.28125 3.78125,1 4.3125,-3.03125 4.03125,0 -0.40625,-5.90625 0.96875,-2.125 3.375,4.375 3.53125,-4.5625 L 730.375,734 l 2.8125,2.6875 1.5,-0.28125 0.96875,-1.84375 -0.25,-1.8125 -1.40625,-3.6875 -0.375,-3.5 -0.84375,-1.34375 0.75,-2.03125 2.03125,2.03125 2.21875,-0.21875 0.96875,2.40625 2.375,2.1875 2.78125,-0.15625 -1.03125,3.59375 2.53125,-0.25 1.6875,0.4375 2.8125,0.53125 -0.5625,-1.8125 2.03125,-1.28125 -3.1875,-2.6875 3.375,-1.34375 2.90625,1.34375 0.28125,-3.78125 3.53125,-1.75 0.5,3.78125 3.28125,-0.25 1.53125,-2.53125 3.53125,-3.28125 3.03125,-0.25 1.25,0.75 0.25,2.28125 2.78125,0 0.78125,-4.28125 1,-1.28125 4.03125,2.28125 3.78125,-2.78125 2.28125,-0.5 3.03125,-2.28125 4.8125,-0.75 0.5,-5.3125 4.03125,-1.75 -1.5,-2.53125 -2.03125,-0.78125 5.8125,-0.5 3.78125,-1.75 -2.03125,-1.78125 1.78125,-2.53125 3.53125,0.25 0.75,-3.53125 2.78125,0.5 -1,-4.53125 3.78125,1 0,-4.28125 2.78125,0 2.03125,-3.28125 2,-2.03125 -1.25,-2.53125 -2.28125,-2 4.03125,-0.75 1.78125,-2.53125 3.03125,-1.53125 4.28125,0 1.28125,-1.75 1,-2.28125 -2.03125,-1.25 -0.75,-2.03125 5.3125,-0.25 1,-1.78125 -1.5,-2.78125 2,-1.75 2.03125,-1.78125 2.28125,-0.75 -2.28125,-2.78125 0.5,-2.78125 1.78125,-2 2.78125,1.75 2.25,0.5 0.53125,-1.75 -2.28125,-3.28125 2.28125,-3.5625 -1.28125,-2.25 0.5,-2.28125 -1.5,-2.53125 1.25,-4.03125 1.78125,-2.28125 -1.03125,-1.75 -3.78125,-3.28125 0.78125,-2.78125 3.28125,0.5 1,1.25 0.75,-4.03125 3.28125,-2.28125 1.53125,-1.25 0.25,-3.53125 2,-2.03125 -1.75,-1.25 2.53125,0 2.78125,-3.8125 -0.28125,-3.78125 0.28125,-2.28125 1.75,-5.03125 1.53125,-3.53125 1.75,-1.28125 0.5,-6.0625 3.03125,-1.25 0.78125,5.0625 2.75,-3.8125 3.3125,-2.25 -2.03125,-4.3125 -1.78125,-3.03125 2.78125,-2.53125 0,-3.53125 2.78125,-3.78125 -1,-3.03125 1.75,-1.5 -1,-3.8125 -0.5,-6.0625 -1.78125,4.3125 -2.78125,0.25 3.5625,-4.8125 L 879,542.875 l 3.53125,-1.75 -0.5,-2.53125 -5.5625,-2.28125 -2.28125,0.75 -1.5,3.5625 -2.53125,1 -3.28125,-2.28125 -4.53125,-3.53125 -3.8125,0.5 -4.78125,4.3125 -2.53125,1 -4.5625,-0.75 -4.03125,-1.03125 -0.75,-1.25 3.28125,-1.78125 5.3125,-0.5 3.03125,-1 0.25,-3.03125 6.3125,-5.0625 4.53125,-3.28125 3.28125,-4.03125 0.78125,-4.03125 -3.5625,-3.03125 -5.28125,-2.03125 -4.0625,-2.28125 -2,-2.25 -4.0625,-0.78125 -4.78125,-0.75 -0.5,-2.78125 -3.78125,-0.75 -4.0625,2.03125 -1.5,0.5 1.75,-2.78125 3.28125,-1.53125 4.8125,0.5 1.75,2.53125 2.78125,1.03125 4.8125,0 3.53125,0.5 3.53125,2 4.5625,0.78125 2.25,-0.5 0.78125,-1.53125 -2.78125,-3.78125 -5.3125,-4.8125 -4.78125,-1.25 -1.78125,-5.0625 -4.5625,-1.75 -5.03125,-1.28125 -1.78125,-1.25 0.78125,-3.28125 L 842.375,479 l -6.0625,-8.84375 -3.78125,-6.3125 -4.8125,-9.09375 -2.5,-2.53125 -6.59375,-2.03125 -5.78125,-1.75 -2.28125,-2.53125 -5.5625,-1 -0.5,-4.5625 2.53125,-2.5 0.5,-4.3125 1.5,-2.28125 2.03125,-5.03125 3.28125,-1.03125 0.75,-2.5 1.53125,-4.0625 2.53125,-2.25 -2.78125,-3.03125 1.5,-1.53125 2.53125,1.28125 3.28125,0.5 2.78125,-2.78125 -0.25,-6.0625 1.5,-2.78125 2.28125,-0.5 4.5625,-3.78125 3.28125,-2.28125 4.28125,-3.28125 2.53125,-3.28125 2.78125,0.5 1.25,-1.25 2.78125,2.5 3.28125,-2.5 -1.25,-3.3125 1,-2.5 -0.25,-4.5625 -3.28125,-1.25 -2.78125,1.5 -3.28125,-1.5 -5.0625,2 -4.03125,2.03125 -2.28125,-1 -1.75,-2.03125 -2.28125,0.5 -4.28125,-2.78125 -3.28125,-1.5 -4.0625,1.5 -4.28125,3.28125 -0.75,4.0625 -4.5625,4.03125 -0.75,4.28125 -3.28125,3.5625 -7.0625,-0.78125 -5.3125,-2 -0.75,-9.59375 -3.28125,-3.5625 -4.8125,-1.25 L 780,374.9375 l -2.78125,1.03125 -3.28125,2 -3.03125,-2.53125 -4.03125,-3.28125 -2.78125,-5.28125 -0.5,-6.5625 1.75,-4.3125 4.0625,-2.78125 2.25,-0.5 3.5625,1.78125 2.5,-1.28125 1.53125,-1.75 3.53125,0 1.5,-1.03125 1.28125,0.53125 0.75,-5.0625 1.25,-4.5625 2.78125,-4.53125 2.53125,-1.5 0,-2.28125 5.3125,-3.28125 6.0625,-4.5625 3.03125,-2 0.25,-5.0625 3.78125,-5.3125 1.53125,-1.5 0.5,-3.28125 L 816.625,306 l 5.03125,-0.25 3.5625,-2.03125 3.03125,0.78125 5.03125,5.03125 2.78125,2.03125 -1.75,4.03125 -1.78125,4.03125 -1.25,3.8125 -4.0625,3.03125 -1.75,2 -0.25,5.0625 -2.28125,1.25 3.53125,2.03125 2.03125,1.78125 3.53125,-1.03125 -1.53125,4.3125 -0.5,2.5 -2.78125,1.53125 -1,2.03125 -2.28125,0.25 -1,3.78125 1.5,1.75 4.0625,-3.28125 3.53125,-4.03125 4.03125,-2.78125 2.28125,-2.53125 1.75,-4.03125 7.59375,-6.8125 5.28125,-4.34375 2.53125,-0.25 1.125,-2.46875 4.625,-0.84375 2.0625,-2.0625 5.4375,-0.5 3.46875,-2.09375 1.34375,-6.5 9.28125,-11.65625 10.84375,-9.1875 7.125,-12.03125 0.53125,-7.84375 5.625,-3.9375 6.78125,4.75 14.5625,-1.9375 0.40625,-3.875 -5.3125,-5.90625 0.90625,-3.28125 7.625,-1.9375 7.1875,-4.75 1.09375,-6.53125 5.40625,-1.4375 0.5,-13.1875 4.6875,-0.75 3.3125,5.09375 4.71875,0.84375 -2,-2.28125 1.8125,-3.0625 4.84375,-3.5 2.375,-12.03125 -2.5625,-2.75 -1.625,-11.34375 -9.5,-16.4375 5.15625,-2.46875 5.125,-10.5625 3.9375,1.5 15.375,-1.25 L 981,159.96875 983.84375,156.53125 984.625,144 l 1.84375,-4.25 -1.8125,-5.875 0.5,-4 -0.59375,-10.28125 -0.875,-3.59375 1.40625,-3.40625 2.65625,-2.1875 1.34375,-5.875 -4.625,-5.125 -0.0625,-6.5625 -4.78125,-2.0625 -7.71875,5.6875 -4,5.5 -3.90625,0.71875 -4.21875,3.21875 -3.25,7.875 -9.9375,4.5 -6.9375,0.5625 -4.65625,2.4375 -8.40625,-6.78125 1.25,-5.125 -5.65625,-5.78125 -1.3125,-6.21875 -5.25,1.8125 -14.3125,-8.5625 -4.53125,2.1875 -8.375,-3.8125 -5.34375,3.4375 -6.8125,0.375 -6.125,-6.0625 -1,-6.625 -3.625,-1.5 -1.28125,-7.1875 -9.09375,-9.375 -0.375,-4.34375 -9.21875,-11.46875 -1.71875,-6.125 -4.125,-5.78125 -4.75,-3.71875 -2.25,-3.96875 -13.21875,-6.59375 -5.59375,2.5 -18.15625,-5.6875 z m 88.96875,627.46875 -1.25,1.9375 0.53125,2.15625 -4.28125,1.59375 -3.03125,2.5 -1.4375,3.21875 -0.53125,3.9375 -2.3125,2.5 -1.625,5.90625 -1.78125,5.15625 -2.65625,6.25 -1.4375,5.1875 -0.53125,5.53125 0.34375,5.1875 1.4375,2.3125 2.125,3.21875 1.96875,5.71875 2.5,3.375 3.03125,1.25 2.875,0.71875 2.3125,3.03125 1.4375,3.75 0,2.15625 0.875,0.53125 2.34375,-0.71875 0.53125,-4.8125 -1.0625,-4.46875 1.25,-5.875 3.5625,-5.71875 1.96875,-6.78125 1.0625,-6.4375 0.71875,-18.40625 0.71875,-5.53125 0.875,-1.4375 0,-3.75 -1.25,-1.40625 -1.0625,-2.875 1.78125,-2.84375 0.71875,-1.625 -1.25,-1.40625 -3.5625,-0.90625 -1.625,0 -1.78125,-2.125 -2.5,0 z M 683.25,788.625 l -4.8125,2.125 -4.28125,1.25 -6.59375,0.90625 -0.90625,1.59375 -3.21875,0.71875 -5.1875,-0.875 -1.25,0.15625 -1.78125,0.90625 0,1.78125 -1.40625,0.71875 -3.9375,-0.1875 -2.15625,1.4375 0,2.125 2.5,0.1875 -1.40625,2.3125 -2.6875,0.71875 -7.6875,5.375 -1.25,2.65625 0.71875,2.5 L 637,817.375 l 0.90625,4.8125 1.25,3.03125 0.71875,4.28125 5.34375,2.34375 4.28125,1.9375 6.09375,-0.34375 2.125,1.96875 4.46875,-0.71875 0,-3.5625 3.5625,-0.90625 3.21875,-0.1875 0.1875,-1.9375 3.5625,-4.46875 2.15625,0 2.3125,-1.09375 0.71875,-4.625 0.90625,-6.25 2.65625,-5.71875 2.6875,-3.75 2.5,-2.15625 -0.53125,-3.375 -1.4375,-3.9375 0,-3.5625 -1.4375,-0.53125 z" style="fill:#68ABDF;fill-opacity:1;stroke:none"/>
</svg>